<?xml version="1.0" encoding="UTF-8"?>
<svg id="_レイヤー_2" data-name="レイヤー 2" xmlns="http://www.w3.org/2000/svg" viewBox="0 0 37.9 18.07">
  <defs>
    <style>
      .cls-1 {
        fill: #c97575;
        stroke-width: 0px;
      }
    </style>
  </defs>
  <g id="_トラッカー" data-name="トラッカー">
    <path class="cls-1" d="m34.22,6.41s.02-.04.03-.06C35.72,3.8,33.58-.08,29.34,0c-4.01.08-5.82,1.77-10.39,1.77S12.57.08,8.56,0C4.33-.08,2.19,3.8,3.66,6.35c0,.02.02.04.03.06C1.14,8-.44,10.06.11,12.63c.1.49.29.89.54,1.24,3.13,6.19,12.73,3.7,18.31,3.7s15.18,2.49,18.31-3.7c.24-.34.43-.75.54-1.24.55-2.58-1.03-4.63-3.58-6.23Z"/>
  </g>
</svg>