<?xml version="1.0" encoding="UTF-8"?>
<svg id="_レイヤー_2" data-name="レイヤー 2" xmlns="http://www.w3.org/2000/svg" viewBox="0 0 90.07 42.93">
  <defs>
    <style>
      .cls-1 {
        fill: #cacdd4;
        stroke-width: 0px;
      }
    </style>
  </defs>
  <g id="_トラッカー" data-name="トラッカー">
    <path class="cls-1" d="M81.31,15.22s.05-.09.07-.14C84.88,9.04,79.78-.19,69.73,0c-9.53.19-13.82,4.21-24.69,4.21S29.87.19,20.34,0C10.29-.19,5.19,9.04,8.69,15.08c.02.05.05.09.07.14C2.7,19.02-1.05,23.9.26,30.02c.25,1.16.69,2.12,1.27,2.94,7.44,14.7,30.26,8.78,43.5,8.78s36.07,5.91,43.5-8.79c.58-.82,1.02-1.78,1.27-2.94,1.31-6.12-2.44-11-8.5-14.8Z"/>
  </g>
</svg>